<svg width="44" height="27" viewBox="0 0 44 27" fill="none" xmlns="http://www.w3.org/2000/svg">
<path d="M9.96225 5.95645V0.841591C4.99099 2.4057 1.35132 6.52971 0.305772 11.4914C0.106034 12.2808 0 13.1074 0 13.9586V16.5988H0.0184943C0.337829 21.8459 4.68522 26.0032 10.0029 26.0032C15.5278 26.0032 20.0059 21.516 20.0059 15.9798C20.0059 10.4437 15.5266 5.95645 10.0029 5.95645H9.96225Z" fill="#080807"/>
<path d="M33.4944 20.8884H33.5351V26.0032C38.5063 24.4391 42.1448 20.3151 43.1903 15.3522C43.39 14.564 43.4973 13.7375 43.4973 12.8862V10.246H43.4788C43.1595 4.99896 38.8109 0.841591 33.4944 0.841591C27.9695 0.841591 23.4914 5.32883 23.4914 10.865C23.4914 16.3999 27.9695 20.8884 33.4944 20.8884Z" fill="#080807"/>
</svg>
